<svg version="1.1" id="Ebene_1" xmlns="http://www.w3.org/2000/svg" x="0" y="0" viewBox="0 0 736.1 121.9" preserveAspectRatio="none" xml:space="preserve"><style>.st0{fill:#7a8077}</style><path class="st0" d="M0 72.3c.6-1.7.6-3.5 1-5.3 3.6-18.5 19.2-33.3 37.8-35.9 2.3-.3 4.6-.5 6.9-.5h43.9c1 0 1.4.1 1.4 1.3v88.2c0 1.1-.3 1.4-1.4 1.4H45.1c-20.5 0-38.8-14.3-43.7-34.2-.5-2.2-.9-4.4-1.2-6.7 0-.2.1-.5-.2-.6v-7.7zm71 3.6V49.2c0-.9-.2-1.2-1.1-1.1H45.4c-6.9 0-13 2.2-18.1 6.8C16.4 65 15 81.2 24.3 93.1c5.1 6.5 11.7 10.5 20.1 10.7 8.6.2 17.2 0 25.8.1 1 0 .8-.6.8-1.2V75.9zM652.6.2c0-.1-.1-.1 0-.2h16.6v.2h-16.6zM656.9 89.3v30.9c0 1.1-.3 1.3-1.3 1.3h-18.1c-1.1 0-1.4-.2-1.4-1.4V60.3c0-2.1-.3-4.1-.8-6.1-.8-3.1-3-4.7-6.1-5.4-1.8-.4-3.5-.3-5.3-.5-2.4-.2-4.6.1-6.9.5-4 .6-6 3.1-6.7 6.8-.3 1.7-.5 3.3-.5 5.1v59.6c0 1-.2 1.3-1.2 1.3h-18.2c-.9 0-1.2-.1-1.2-1.1v-59c0-5.3 1-10.4 3-15.3 4.1-9.8 11.5-15 22.1-15.3 6.2-.2 12.5-.2 18.7.1 4.8.2 9.2 1.7 13 4.7.4.3.7.3 1 0 4.9-3.7 10.5-4.9 16.4-4.8 5.6.1 11.1-.2 16.7.1 6.3.3 11.9 2.6 16.2 7.3 3 3.3 5 7.2 6.2 11.5 1.5 5.4 1.9 10.9 1.8 16.4v53.9c0 1.2-.3 1.5-1.5 1.5-6-.1-11.9-.1-17.9 0-1.1 0-1.4-.2-1.4-1.4V62.3c0-2.5-.2-4.9-.7-7.3-.7-3.5-2.9-5.3-6.2-6.1-1.8-.4-3.7-.5-5.6-.5-2.8-.1-5.5 0-8.2.7-2.9.8-4.5 2.5-5.3 5.3-.6 2.2-.8 4.4-.7 6.6.1 9.4.1 18.9.1 28.3zM204.7 76V32.2c0-1.8-.2-1.6 1.5-1.6h75c1.1 0 1.5.2 1.5 1.4-.1 4.9-.1 9.9 0 14.8 0 1.1-.3 1.4-1.4 1.4-19.1 0-38.2 0-57.3-.1-1.2 0-1.5.3-1.5 1.5.1 5 .1 10 0 15 0 1 .3 1.2 1.3 1.2 15.3 0 30.5 0 45.8-.1 1.2 0 1.5.3 1.4 1.4-.1 5-.1 10 0 15 0 1.1-.4 1.3-1.4 1.3-15.2 0-30.5 0-45.7-.1-1.2 0-1.4.3-1.4 1.4.1 5.9.1 11.8 0 17.7 0 1.1.3 1.3 1.3 1.3h57.4c1.1 0 1.5.2 1.5 1.4-.1 5-.1 10 0 15 0 .9-.2 1.2-1.2 1.2h-75.6c-1.1 0-1.2-.4-1.2-1.3V76zM102.8 76.1V32.2c0-1.2.3-1.5 1.5-1.5 5.7.1 11.4.1 17 0 1.2 0 1.5.2 1.5 1.5 0 23.4 0 46.8-.1 70.1 0 1.2.3 1.5 1.5 1.5 12.7-.1 25.4 0 38.1-.1 2 0 3.9-.3 5.8-.9 2.3-.7 3.7-2.2 4.5-4.4.8-2.3 1-4.7 1-7.2v-59c0-1.2.3-1.4 1.4-1.4 5.9.1 11.8 0 17.6 0 .8 0 1.1.2 1.1 1 0 19.9 0 39.7-.1 59.6 0 5.6-1.1 11-3.4 16.1-4.3 9.4-11.7 14-22 14.1h-63.9c-1.6 0-1.6 0-1.6-1.5.1-14.8.1-29.4.1-44zM291.7 76.1v-44c0-1.1.2-1.4 1.4-1.4h64.4c6.1 0 11.7 1.7 16.2 6.1 4 3.8 6.2 8.5 7.6 13.7 1 3.8 1.5 7.7 1.5 11.7v57.9c0 1.2-.4 1.4-1.5 1.4-5.7-.1-11.4 0-17 0-1.6 0-1.6 0-1.6-1.5V60.9c0-1.7-.1-3.3-.4-5-.9-4.8-3.3-6.9-8.3-7.5-1.8-.2-3.6-.3-5.4-.3h-35.5c-1.1 0-1.4.3-1.4 1.4V120c0 1.5 0 1.5-1.6 1.5h-16.9c-1.8 0-1.6.2-1.6-1.6.1-14.6.1-29.2.1-43.8zM488.4 62.6V32c0-1 .2-1.4 1.3-1.3 5.8.1 11.7.1 17.5 0 1.1 0 1.3.3 1.3 1.3v59.5c0 1.7.2 3.3.5 5 .8 4.3 3 6.3 7.3 7 1.3.2 2.7.4 4 .4h27.3c1.2 0 2.5-.2 3.7-.4 4.9-.8 7-3 7.7-7.9.2-1.5.3-3 .3-4.5v-59c0-1.1.3-1.4 1.4-1.4 5.8.1 11.7 0 17.5 0 1 0 1.3.2 1.3 1.2v58.3c0 6.2-1 12.2-3.8 17.9-4.3 8.9-11.5 13.4-21.4 13.5-13.6.1-27.1.1-40.7 0-11.4-.1-19.5-6.3-23.1-17.8-1.4-4.4-2-8.9-2-13.5-.1-9.3-.1-18.5-.1-27.7zM433.5 30.7h44.3c1 0 1.3.2 1.3 1.3-.1 4.9-.1 9.8 0 14.7 0 1.1-.2 1.5-1.4 1.5-11-.1-22.1 0-33.1-.1-1.1 0-1.5.3-1.5 1.4 0 23.5 0 47 .1 70.5 0 1.2-.2 1.5-1.5 1.5-5.5-.1-11-.1-16.4 0-1.2 0-1.5-.3-1.5-1.4V49.7c0-1.8.2-1.6-1.6-1.6h-32.7c-1.8 0-1.6.3-1.6-1.6V31.9c0-1 .2-1.3 1.2-1.3 14.9.1 29.6.1 44.4.1z"/><path d="M652.6.2h16.5c5 0 9.9-.1 14.9.1 12.5.5 24 4 33.6 12.4 7.9 6.9 12.9 15.7 15.8 25.7 1.7 5.7 2.5 11.4 2.4 17.3v31.7c-5.2-.9-10.1-2.5-13.6-6.6-2.4-2.8-2.8-6.1-2.6-9.6.6-9.2.4-18.4-2-27.4-1.5-5.6-3.9-10.9-7.7-15.4-4.9-5.8-11.2-9-18.5-10.7-6-1.4-12.2-1.6-18.2-1.1-6.3.5-10.8-2.1-14.6-6.7-2.3-2.8-4.2-5.7-5.7-8.9-.3-.2-.5-.5-.3-.8z" fill="#782235"/></svg>